<svg width="34" height="34" viewBox="0 0 34 34" fill="none" xmlns="http://www.w3.org/2000/svg">
<path d="M15.8154 22.4833C15.7437 22.5625 15.6769 22.6459 15.6154 22.7333C15.5523 22.8262 15.5019 22.927 15.4654 23.0333C15.4173 23.1277 15.3836 23.2288 15.3654 23.3333C15.3572 23.4442 15.3572 23.5556 15.3654 23.6666C15.3597 23.8852 15.4054 24.1021 15.4987 24.2999C15.5736 24.5067 15.693 24.6946 15.8485 24.8501C16.004 25.0056 16.1919 25.1251 16.3987 25.1999C16.5982 25.2881 16.8139 25.3336 17.032 25.3336C17.2502 25.3336 17.4659 25.2881 17.6654 25.1999C17.8722 25.1251 18.06 25.0056 18.2156 24.8501C18.3711 24.6946 18.4905 24.5067 18.5654 24.2999C18.6394 24.0973 18.6733 23.8822 18.6654 23.6666C18.6666 23.4472 18.6246 23.2298 18.5417 23.0267C18.4587 22.8237 18.3365 22.639 18.182 22.4833C18.0271 22.327 17.8428 22.203 17.6397 22.1184C17.4366 22.0338 17.2187 21.9903 16.9987 21.9903C16.7787 21.9903 16.5608 22.0338 16.3577 22.1184C16.1546 22.203 15.9703 22.327 15.8154 22.4833ZM16.9987 0.333252C13.7024 0.333252 10.48 1.31073 7.7392 3.14209C4.99838 4.97345 2.86217 7.57643 1.60071 10.6219C0.339253 13.6673 0.00919709 17.0184 0.652284 20.2514C1.29537 23.4844 2.88272 26.4542 5.21359 28.785C7.54447 31.1159 10.5142 32.7033 13.7472 33.3463C16.9802 33.9894 20.3313 33.6594 23.3768 32.3979C26.4222 31.1365 29.0252 29.0002 30.8565 26.2594C32.6879 23.5186 33.6654 20.2963 33.6654 16.9999C33.6654 14.8112 33.2343 12.644 32.3967 10.6219C31.5591 8.59977 30.3315 6.76245 28.7838 5.21481C27.2362 3.66716 25.3989 2.4395 23.3768 1.60193C21.3547 0.764348 19.1874 0.333252 16.9987 0.333252ZM16.9987 30.3333C14.3616 30.3333 11.7838 29.5513 9.5911 28.0862C7.39845 26.6211 5.68948 24.5387 4.68031 22.1024C3.67114 19.666 3.4071 16.9851 3.92157 14.3987C4.43604 11.8123 5.70591 9.43653 7.57061 7.57183C9.43532 5.70713 11.8111 4.43725 14.3975 3.92278C16.9839 3.40831 19.6648 3.67236 22.1012 4.68153C24.5375 5.69069 26.6199 7.39966 28.085 9.59232C29.55 11.785 30.332 14.3628 30.332 16.9999C30.332 20.5361 28.9273 23.9275 26.4268 26.428C23.9263 28.9285 20.5349 30.3333 16.9987 30.3333ZM16.9987 8.66659C16.1205 8.66602 15.2576 8.89679 14.4969 9.33566C13.7362 9.77453 13.1045 10.406 12.6654 11.1666C12.5448 11.3563 12.4638 11.5684 12.4273 11.7902C12.3908 12.012 12.3996 12.2389 12.4531 12.4572C12.5066 12.6756 12.6037 12.8808 12.7385 13.0606C12.8734 13.2405 13.0432 13.3912 13.2378 13.5037C13.4324 13.6162 13.6478 13.6881 13.8709 13.7152C14.0941 13.7423 14.3204 13.724 14.5363 13.6614C14.7521 13.5988 14.9531 13.4931 15.1271 13.3508C15.3011 13.2085 15.4445 13.0324 15.5487 12.8333C15.6955 12.5789 15.907 12.3679 16.1616 12.2215C16.4162 12.0752 16.705 11.9988 16.9987 11.9999C17.4407 11.9999 17.8647 12.1755 18.1772 12.4881C18.4898 12.8006 18.6654 13.2246 18.6654 13.6666C18.6654 14.1086 18.4898 14.5325 18.1772 14.8451C17.8647 15.1577 17.4407 15.3333 16.9987 15.3333C16.5567 15.3333 16.1328 15.5088 15.8202 15.8214C15.5076 16.134 15.332 16.5579 15.332 16.9999V18.6666C15.332 19.1086 15.5076 19.5325 15.8202 19.8451C16.1328 20.1577 16.5567 20.3333 16.9987 20.3333C17.4407 20.3333 17.8647 20.1577 18.1772 19.8451C18.4898 19.5325 18.6654 19.1086 18.6654 18.6666V18.3666C19.7677 17.9666 20.6943 17.192 21.2833 16.178C21.8723 15.1641 22.0863 13.9754 21.8877 12.8197C21.6891 11.6641 21.0907 10.6149 20.197 9.85578C19.3033 9.09661 18.1713 8.67568 16.9987 8.66659Z" fill="#FFBC57"/>
</svg>
