<svg width="12" height="12" viewBox="0 0 12 12" fill="none" xmlns="http://www.w3.org/2000/svg">
<path d="M11.9199 0.62C11.8185 0.375651 11.6243 0.181475 11.3799 0.0799999C11.2597 0.028759 11.1306 0.00157999 10.9999 0H0.999939C0.734722 0 0.480369 0.105357 0.292832 0.292893C0.105296 0.48043 -6.10352e-05 0.734784 -6.10352e-05 1C-6.10352e-05 1.26522 0.105296 1.51957 0.292832 1.70711C0.480369 1.89464 0.734722 2 0.999939 2H8.58994L0.289939 10.29C0.196211 10.383 0.121816 10.4936 0.0710478 10.6154C0.0202791 10.7373 -0.00585938 10.868 -0.00585938 11C-0.00585938 11.132 0.0202791 11.2627 0.0710478 11.3846C0.121816 11.5064 0.196211 11.617 0.289939 11.71C0.382902 11.8037 0.493503 11.8781 0.615362 11.9289C0.737221 11.9797 0.867927 12.0058 0.999939 12.0058C1.13195 12.0058 1.26266 11.9797 1.38452 11.9289C1.50638 11.8781 1.61698 11.8037 1.70994 11.71L9.99994 3.41V11C9.99994 11.2652 10.1053 11.5196 10.2928 11.7071C10.4804 11.8946 10.7347 12 10.9999 12C11.2652 12 11.5195 11.8946 11.707 11.7071C11.8946 11.5196 11.9999 11.2652 11.9999 11V1C11.9984 0.869323 11.9712 0.740222 11.9199 0.62Z" fill="#FFBC57"/>
</svg>
